<?xml version="1.0" standalone="no"?>
<!DOCTYPE svg PUBLIC "-//W3C//DTD SVG 20010904//EN"
 "http://www.w3.org/TR/2001/REC-SVG-20010904/DTD/svg10.dtd">
<svg version="1.0" xmlns="http://www.w3.org/2000/svg"
 width="500.000000pt" height="500.000000pt" viewBox="0 0 500.000000 500.000000"
 preserveAspectRatio="xMidYMid meet">

<g transform="translate(0.000000,500.000000) scale(0.100000,-0.100000)"
fill="#000000" stroke="none">
<path d="M120 3280 l0 -120 -60 0 -60 0 0 -780 0 -780 660 0 660 0 0 780 0
780 -60 0 -60 0 0 120 0 120 -540 0 -540 0 0 -120z m960 -60 l0 -60 -420 0
-420 0 0 60 0 60 420 0 420 0 0 -60z m120 -840 l0 -660 -540 0 -540 0 0 660 0
660 540 0 540 0 0 -660z"/>
<path d="M364 2878 c16 -101 82 -189 175 -232 71 -32 179 -29 253 7 89 44 152
129 165 222 l6 45 -62 0 c-55 0 -61 -2 -61 -20 0 -26 -32 -90 -57 -112 -28
-25 -88 -48 -125 -48 -45 1 -110 32 -137 66 -12 15 -27 48 -34 71 l-11 43 -59
0 -60 0 7 -42z"/>
<path d="M4914 2563 l7 -118 -20 32 c-26 42 -69 63 -128 63 -58 0 -105 -26
-129 -72 -22 -41 -31 -196 -15 -255 16 -58 60 -100 115 -108 76 -12 124 9 163
71 11 17 13 14 10 -21 l-2 -40 43 -3 42 -3 0 285 0 286 -46 0 -47 0 7 -117z
m-39 -109 c31 -20 45 -63 45 -136 0 -70 -19 -112 -60 -133 -46 -24 -87 -19
-121 14 -28 28 -29 33 -29 126 0 89 2 98 25 120 29 30 101 34 140 9z"/>
<path d="M1872 2388 l3 -273 143 -3 c124 -2 149 0 187 17 56 25 78 66 78 144
-1 67 -20 102 -66 122 l-32 13 26 11 c15 5 34 20 43 33 21 29 21 110 0 149
-25 49 -64 59 -234 59 l-150 0 2 -272z m297 176 c28 -36 27 -79 -4 -109 -22
-23 -32 -25 -115 -25 l-90 0 0 80 0 80 94 0 c90 0 96 -1 115 -26z m-9 -217
c53 -27 49 -131 -6 -156 -14 -6 -63 -11 -109 -11 l-85 0 0 90 0 90 88 0 c50 0
98 -6 112 -13z"/>
<path d="M2790 2625 l0 -35 80 0 80 0 0 -240 0 -240 40 0 40 0 0 240 0 240 85
0 85 0 0 35 0 35 -205 0 -205 0 0 -35z"/>
<path d="M3720 2385 l0 -275 180 0 180 0 0 35 0 35 -135 0 -135 0 0 90 0 90
130 0 130 0 0 35 0 35 -130 0 -130 0 0 80 0 80 130 0 130 0 0 35 0 35 -175 0
-175 0 0 -275z"/>
<path d="M2437 2518 c-57 -34 -77 -85 -77 -199 0 -113 21 -160 85 -193 81 -43
265 -19 265 33 0 11 2 26 6 34 4 12 -4 11 -48 -4 -63 -22 -117 -24 -161 -6
-40 17 -55 35 -63 75 l-6 32 141 0 141 0 0 66 c0 126 -47 177 -170 182 -63 2
-81 -1 -113 -20z m148 -52 c39 -16 55 -42 55 -85 l0 -31 -100 0 c-94 0 -100 1
-100 20 0 45 28 89 62 99 45 13 44 13 83 -3z"/>
<path d="M3355 2526 c-64 -28 -95 -92 -95 -198 0 -95 13 -137 52 -175 55 -52
148 -67 245 -38 44 13 51 19 57 46 3 17 6 35 6 39 0 4 -26 -2 -57 -13 -65 -21
-139 -18 -179 8 -22 14 -46 71 -37 88 2 4 64 7 138 7 154 0 152 -1 140 96 -13
103 -73 154 -180 154 -33 -1 -73 -7 -90 -14z m157 -74 c21 -18 41 -83 29 -95
-4 -4 -50 -6 -102 -5 l-94 3 3 30 c4 39 32 78 63 86 32 9 80 0 101 -19z"/>
<path d="M4313 2520 c-17 -10 -39 -32 -47 -47 l-15 -28 -1 43 0 42 -40 0 -40
0 0 -210 0 -210 40 0 40 0 0 146 0 146 34 34 c27 27 42 34 74 34 24 0 49 -7
63 -19 23 -19 24 -25 27 -180 l3 -161 40 0 39 0 0 165 c0 186 -9 224 -59 249
-42 22 -119 20 -158 -4z"/>
</g>
</svg>
