<svg width="165" height="161" viewBox="0 0 165 161" fill="none" xmlns="http://www.w3.org/2000/svg">
<ellipse cx="82.5" cy="80.5" rx="82.5" ry="80.5" fill="#0C0101"/>
<path d="M32 48.9998L49 27.9998H117L134 48.9998M32 48.9998V122.5C32 125.285 33.194 127.955 35.3195 129.924C37.4449 131.894 40.3275 133 43.3333 133H122.667C125.672 133 128.555 131.894 130.681 129.924C132.806 127.955 134 125.285 134 122.5V48.9998M32 48.9998H134M105.667 73.0753C105.667 78.6449 103.279 83.9863 99.0277 87.9245C94.7769 91.8628 89.0115 94.0753 83 94.0753C76.9884 94.0753 71.223 91.8628 66.9722 87.9245C62.7214 83.9863 60.3333 78.6449 60.3333 73.0753" stroke="#EFE5E5" stroke-width="2" stroke-linecap="round" stroke-linejoin="round"/>
</svg>
